<svg data-v-423bf9ae="" xmlns="http://www.w3.org/2000/svg" viewBox="0 0 623 90" class="iconLeft"><!----><!----><!----><g data-v-423bf9ae="" id="7862cf36-82f6-4b01-8fdb-d24b2970cd20" fill="white" transform="matrix(5.681818008422852,0,0,5.681818008422852,177.71444702148438,14.374999046325684)"><path d="M0.69 7.14C0.69 9.48 1.83 10.67 3.93 10.67C4.91 10.67 6.23 10.15 6.62 8.65L6.22 8.46C5.78 9.44 5.22 9.94 4.20 9.94C2.53 9.94 2.14 8.20 2.14 6.89C2.14 4.80 2.97 3.96 3.93 3.96C4.58 3.96 4.98 4.42 5.26 5.18C5.35 5.40 5.43 5.54 5.70 5.54C5.98 5.54 6.52 5.36 6.52 4.83C6.52 4.19 5.60 3.47 4.09 3.47C1.54 3.47 0.69 5.28 0.69 7.14ZM7.63 7.13C7.63 9.34 8.58 10.67 10.86 10.67C12.42 10.67 13.22 9.80 13.59 8.69L13.17 8.47C12.78 9.28 12.25 9.95 11.14 9.95C9.41 9.95 9.06 8.27 9.09 6.82L13.12 6.82C13.41 6.82 13.68 6.75 13.68 6.29C13.68 5.46 13.41 3.47 10.85 3.47C8.67 3.47 7.63 5.03 7.63 7.13ZM9.10 6.29C9.10 5.71 9.31 3.96 10.77 3.96C12.07 3.96 12.22 5.29 12.22 5.84C12.22 6.10 12.14 6.29 11.75 6.29ZM14.59 10.50L18.00 10.50L18.00 10.09C17.01 10.02 16.95 10.00 16.95 9.28L16.95 6.01C16.95 5.66 16.98 5.46 17.09 5.24C17.39 4.69 18.02 4.23 18.76 4.23C19.71 4.23 20.23 4.76 20.23 5.98L20.23 9.28C20.23 10.00 20.19 10.02 19.18 10.09L19.18 10.50L22.60 10.50L22.60 10.09C21.60 10.02 21.55 10.00 21.55 9.28L21.55 5.70C21.55 4.28 20.78 3.47 19.49 3.47C18.45 3.47 17.81 3.98 16.94 4.54L16.74 3.47L14.66 3.82L14.66 4.17L15.19 4.24C15.55 4.30 15.64 4.37 15.64 4.87L15.64 9.28C15.64 10.00 15.60 10.02 14.59 10.09ZM23.24 4.20L24.25 4.20L24.25 9.07C24.25 10.50 25.31 10.67 25.80 10.67C26.52 10.67 27.19 10.30 27.59 10.05L27.48 9.76C27.15 9.90 26.84 9.94 26.49 9.94C26.01 9.94 25.56 9.60 25.56 8.54L25.56 4.20L27.37 4.20L27.37 3.64L25.56 3.64L25.56 1.88L25.16 1.88L24.30 3.64L23.24 3.64ZM28.07 10.50L31.77 10.50L31.77 10.09C30.52 10.02 30.44 10.00 30.44 9.28L30.44 6.01C30.44 4.93 30.91 4.56 31.23 4.56C31.46 4.56 31.70 4.65 32.10 4.87C32.20 4.93 32.31 4.94 32.38 4.94C32.72 4.94 33.03 4.59 33.03 4.16C33.03 3.85 32.83 3.47 32.28 3.47C31.78 3.47 31.36 3.78 30.44 4.59L30.27 3.47L28.14 3.82L28.14 4.17L28.67 4.24C29.04 4.30 29.12 4.37 29.12 4.87L29.12 9.28C29.12 10.00 29.05 10.02 28.07 10.09ZM33.75 8.68C33.75 9.73 34.45 10.67 35.77 10.67C36.58 10.67 37.41 10.12 37.86 9.83C38.05 10.35 38.28 10.67 38.77 10.67C39.28 10.67 39.89 10.51 40.42 10.25L40.33 9.91C40.14 9.95 39.83 9.98 39.62 9.93C39.37 9.87 39.13 9.60 39.13 8.72L39.13 5.33C39.13 4.52 38.95 3.47 36.83 3.47C35.25 3.47 34.01 4.30 34.01 5.07C34.01 5.52 34.52 5.73 34.79 5.73C35.08 5.73 35.17 5.57 35.24 5.33C35.55 4.30 36.12 3.96 36.68 3.96C37.23 3.96 37.87 4.24 37.87 5.36L37.87 5.95C37.52 6.31 36.16 6.66 35.06 7.01C34.05 7.32 33.75 8.02 33.75 8.68ZM35.17 8.48C35.17 7.83 35.48 7.49 36.26 7.20C36.82 6.99 37.56 6.72 37.87 6.52L37.87 8.50C37.87 9.63 37.00 9.93 36.46 9.93C35.59 9.93 35.17 9.31 35.17 8.48ZM40.67 10.50L44.09 10.50L44.09 10.09C43.09 10.02 43.04 10.00 43.04 9.28L43.04 0.20L42.94 0.11L40.74 0.46L40.74 0.81L41.27 0.87C41.64 0.91 41.72 0.98 41.72 1.51L41.72 9.28C41.72 10.00 41.68 10.02 40.67 10.09ZM47.87 4.20L48.94 4.20L48.94 9.28C48.94 10.00 48.90 10.02 47.89 10.09L47.89 10.50L51.59 10.50L51.59 10.09C50.32 10.04 50.26 10.01 50.26 9.30L50.26 4.20L51.97 4.20L51.97 3.64L50.26 3.64L50.20 2.07C50.16 0.74 50.65 0.60 50.88 0.60C51.17 0.60 51.48 0.74 51.83 1.55C51.90 1.69 52.00 1.79 52.21 1.79C52.49 1.79 52.89 1.55 52.89 1.13C52.89 0.67 52.30 0.11 51.18 0.11C50.41 0.11 49.76 0.46 49.41 0.99C49.08 1.48 48.94 2.23 48.94 3.15L48.94 3.64L47.87 3.64ZM52.19 10.50L55.61 10.50L55.61 10.09C54.61 10.02 54.56 10.00 54.56 9.28L54.56 0.20L54.46 0.11L52.26 0.46L52.26 0.81L52.79 0.87C53.16 0.91 53.24 0.98 53.24 1.51L53.24 9.28C53.24 10.00 53.20 10.02 52.19 10.09ZM56.50 7.07C56.50 9.34 57.61 10.67 59.86 10.67C62.12 10.67 63.22 9.34 63.22 7.07C63.22 4.80 62.12 3.47 59.86 3.47C57.61 3.47 56.50 4.80 56.50 7.07ZM57.96 7.07C57.96 5.14 58.58 3.96 59.86 3.96C61.15 3.96 61.77 5.14 61.77 7.07C61.77 9.00 61.15 10.18 59.86 10.18C58.58 10.18 57.96 9.00 57.96 7.07ZM64.58 7.14C64.58 9.48 65.73 10.67 67.83 10.67C68.81 10.67 70.13 10.15 70.52 8.65L70.11 8.46C69.68 9.44 69.12 9.94 68.10 9.94C66.43 9.94 66.04 8.20 66.04 6.89C66.04 4.80 66.86 3.96 67.83 3.96C68.47 3.96 68.88 4.42 69.16 5.18C69.24 5.40 69.33 5.54 69.59 5.54C69.87 5.54 70.42 5.36 70.42 4.83C70.42 4.19 69.50 3.47 67.98 3.47C65.44 3.47 64.58 5.28 64.58 7.14ZM71.12 10.50L74.54 10.50L74.54 10.09C73.54 10.02 73.49 10.00 73.49 9.28L73.49 6.94L73.51 6.94C74.09 7.85 75.08 9.07 75.81 9.81C76.33 10.33 76.87 10.50 77.32 10.53L78.37 10.57L78.37 10.18C77.95 10.07 77.60 9.86 77.17 9.42C76.30 8.57 75.21 7.24 74.68 6.48C74.61 6.38 74.58 6.31 74.72 6.16C75.39 5.39 75.84 4.98 76.31 4.63C76.79 4.28 77.14 4.12 77.95 4.03L77.95 3.64L76.51 3.64C76.03 3.64 75.91 3.71 75.63 4.05C75.22 4.54 73.84 6.27 73.51 6.75L73.49 6.75L73.49 0.20L73.39 0.11L71.19 0.46L71.19 0.81L71.72 0.87C72.09 0.91 72.17 0.98 72.17 1.51L72.17 9.28C72.17 10.00 72.13 10.02 71.12 10.09Z"></path></g><!----><g data-v-423bf9ae="" id="8674da50-d68d-4469-bb1d-beea04c769de" transform="matrix(1.9653096199035645,0,0,1.9653096199035645,0.18254207074642181,1.0002976655960083)" stroke="none" fill="white"><path d="M49.27 34.759a32.65 32.65 0 014.344-1.82c2.613-.871 5.349-1.377 8.103-1.432 5.289-.105 10.478 1.492 14.962 4.256A30.715 30.715 0 0180.81 38.8c.404.355.982.941 1.434 1.371-27.186-12.207-37.428 5.623-37.428 5.623S31.128 22.722 0 42.274c.123-.123.337-.379.48-.531.452-.482.923-.951 1.403-1.41a43.616 43.616 0 012.256-1.998 43.492 43.492 0 013.036-2.299 40.964 40.964 0 013.745-2.309 36.154 36.154 0 014.384-2.027 32.256 32.256 0 014.953-1.459 28.915 28.915 0 015.449-.598c1.97-.025 3.94.162 5.872.553a30.342 30.342 0 016.229 1.992c2.293 1.01 4.465 2.279 6.51 3.721.269.189 1.449 1.047 1.541 1.15.638-.761 3.412-2.3 3.412-2.3zM36.809 16.233c-.059-.072-.826-.676-1.002-.811a25.246 25.246 0 00-4.26-2.659 20.265 20.265 0 00-4.118-1.495 18.67 18.67 0 00-3.915-.523 19.29 19.29 0 00-3.664.26 21.41 21.41 0 00-3.353.847 24.026 24.026 0 00-2.987 1.243c-.882.434-1.737.921-2.567 1.447-.719.457-1.416.943-2.092 1.461-.535.406-1.057.834-1.562 1.277-.333.295-.66.597-.975.908-.1.098-.25.264-.335.343 21.344-12.278 29.905 3.521 29.905 3.521s7.32-11.667 25.198-2.789c-.29-.3-.662-.707-.923-.955a20.602 20.602 0 00-2.687-2.141c-2.93-1.967-6.36-3.171-9.903-3.238a18.357 18.357 0 00-5.461.748 21.952 21.952 0 00-2.955 1.105c-.001 0-1.897.958-2.344 1.451zm8.423-13.58a13.799 13.799 0 00-.621-.389 14.337 14.337 0 00-2.588-1.208c-.787-.273-1.6-.466-2.427-.562a10.549 10.549 0 00-2.247-.026c-.694.066-1.381.201-2.049.397-.631.185-1.244.424-1.835.708-.554.264-1.087.569-1.602.906a15.56 15.56 0 00-1.35.993 17.066 17.066 0 00-1.875 1.796 14.09 14.09 0 00-.488.579c-.05.062-.123.166-.166.218 11.208-8.396 17.123-.064 17.123-.064s3.332-7.088 14.033-3.303c-.184-.149-.423-.354-.586-.476a11.768 11.768 0 00-1.663-1.024C55.102.288 53.082-.156 51.078.049a10.46 10.46 0 00-3.031.797c-.551.236-1.082.515-1.592.827.001 0-1.004.671-1.223.98z"></path></g><!----></svg>